%TF.GenerationSoftware,KiCad,Pcbnew,10.0.3*%
%TF.CreationDate,2026-05-24T21:25:08+10:00*%
%TF.ProjectId,altair_xiao_tiny,616c7461-6972-45f7-9869-616f5f74696e,rev?*%
%TF.SameCoordinates,Original*%
%TF.FileFunction,Copper,L2,Bot*%
%TF.FilePolarity,Positive*%
%FSLAX46Y46*%
G04 Gerber Fmt 4.6, Leading zero omitted, Abs format (unit mm)*
G04 Created by KiCad (PCBNEW 10.0.3) date 2026-05-24 21:25:08*
%MOMM*%
%LPD*%
G01*
G04 APERTURE LIST*
%TA.AperFunction,ComponentPad*%
%ADD10R,1.700000X1.700000*%
%TD*%
%TA.AperFunction,ComponentPad*%
%ADD11C,1.700000*%
%TD*%
%TA.AperFunction,ViaPad*%
%ADD12C,0.600000*%
%TD*%
%TA.AperFunction,Conductor*%
%ADD13C,0.200000*%
%TD*%
%TA.AperFunction,Conductor*%
%ADD14C,0.508000*%
%TD*%
G04 APERTURE END LIST*
D10*
%TO.P,,1*%
%TO.N,LOAD*%
X16000000Y-18460000D03*
D11*
%TO.P,,2*%
%TO.N,SWITCH_CS*%
X16000000Y-21000000D03*
%TO.P,,3*%
%TO.N,N/C*%
X16000000Y-23540000D03*
%TO.P,,4*%
%TO.N,MISO*%
X16000000Y-26080000D03*
%TO.P,,5*%
%TO.N,MOSI*%
X16000000Y-28620000D03*
%TO.P,,6*%
%TO.N,RESET*%
X16000000Y-31160000D03*
%TO.P,,7*%
%TO.N,SCK*%
X16000000Y-33700000D03*
%TO.P,,8*%
%TO.N,LED_STORE*%
X16000000Y-36240000D03*
%TO.P,,9*%
%TO.N,LED_OE*%
X16000000Y-38780000D03*
%TO.P,,10*%
%TO.N,3V3*%
X16000000Y-41320000D03*
%TO.P,,11*%
%TO.N,GND*%
X16000000Y-43860000D03*
%TD*%
D12*
%TO.N,MISO*%
X35019306Y-30949689D03*
%TO.N,GND*%
X36000000Y-23000000D03*
%TO.N,3V3*%
X36000000Y-26000000D03*
%TO.N,MOSI*%
X35000000Y-29000000D03*
%TO.N,SCK*%
X35000000Y-34000000D03*
%TD*%
%TO.N,MISO*%
D13*
X37000000Y-31000000D02*
X35069617Y-31000000D01*
X37000000Y-27000000D02*
X37000000Y-31000000D01*
X16920000Y-27000000D02*
X37000000Y-27000000D01*
X16000000Y-26080000D02*
X16920000Y-27000000D01*
X35069617Y-31000000D02*
X35019306Y-30949689D01*
%TO.N,GND*%
D14*
X16000000Y-43860000D02*
X39860000Y-43860000D01*
X36000000Y-23000000D02*
X40000000Y-23000000D01*
D13*
X39860000Y-43860000D02*
X40000000Y-43720000D01*
D14*
X40000000Y-23000000D02*
X40000000Y-43720000D01*
%TO.N,3V3*%
X38000000Y-41000000D02*
X38000000Y-26000000D01*
X16000000Y-41320000D02*
X37680000Y-41320000D01*
X37680000Y-41320000D02*
X38000000Y-41000000D01*
X38000000Y-26000000D02*
X36000000Y-26000000D01*
%TO.N,MOSI*%
D13*
X34620000Y-28620000D02*
X35000000Y-29000000D01*
X16000000Y-28620000D02*
X34620000Y-28620000D01*
%TO.N,SCK*%
X16000000Y-33700000D02*
X34700000Y-33700000D01*
X34700000Y-33700000D02*
X35000000Y-34000000D01*
%TD*%
M02*
