%TF.GenerationSoftware,KiCad,Pcbnew,10.0.3*%
%TF.CreationDate,2026-05-24T21:25:08+10:00*%
%TF.ProjectId,altair_xiao_tiny,616c7461-6972-45f7-9869-616f5f74696e,rev?*%
%TF.SameCoordinates,Original*%
%TF.FileFunction,Copper,L1,Top*%
%TF.FilePolarity,Positive*%
%FSLAX46Y46*%
G04 Gerber Fmt 4.6, Leading zero omitted, Abs format (unit mm)*
G04 Created by KiCad (PCBNEW 10.0.3) date 2026-05-24 21:25:08*
%MOMM*%
%LPD*%
G01*
G04 APERTURE LIST*
G04 Aperture macros list*
%AMRoundRect*
0 Rectangle with rounded corners*
0 $1 Rounding radius*
0 $2 $3 $4 $5 $6 $7 $8 $9 X,Y pos of 4 corners*
0 Add a 4 corners polygon primitive as box body*
4,1,4,$2,$3,$4,$5,$6,$7,$8,$9,$2,$3,0*
0 Add four circle primitives for the rounded corners*
1,1,$1+$1,$2,$3*
1,1,$1+$1,$4,$5*
1,1,$1+$1,$6,$7*
1,1,$1+$1,$8,$9*
0 Add four rect primitives between the rounded corners*
20,1,$1+$1,$2,$3,$4,$5,0*
20,1,$1+$1,$4,$5,$6,$7,0*
20,1,$1+$1,$6,$7,$8,$9,0*
20,1,$1+$1,$8,$9,$2,$3,0*%
G04 Aperture macros list end*
%TA.AperFunction,ComponentPad*%
%ADD10R,1.700000X1.700000*%
%TD*%
%TA.AperFunction,ComponentPad*%
%ADD11C,1.700000*%
%TD*%
%TA.AperFunction,SMDPad,CuDef*%
%ADD12RoundRect,0.500000X-1.000000X-0.500000X1.000000X-0.500000X1.000000X0.500000X-1.000000X0.500000X0*%
%TD*%
%TA.AperFunction,HeatsinkPad*%
%ADD13RoundRect,0.250000X-1.500000X-1.500000X1.500000X-1.500000X1.500000X1.500000X-1.500000X1.500000X0*%
%TD*%
%TA.AperFunction,SMDPad,CuDef*%
%ADD14RoundRect,0.250000X-0.900000X-0.400000X0.900000X-0.400000X0.900000X0.400000X-0.900000X0.400000X0*%
%TD*%
%TA.AperFunction,SMDPad,CuDef*%
%ADD15C,1.300000*%
%TD*%
%TA.AperFunction,ViaPad*%
%ADD16C,0.600000*%
%TD*%
%TA.AperFunction,Conductor*%
%ADD17C,0.200000*%
%TD*%
%TA.AperFunction,Conductor*%
%ADD18C,0.508000*%
%TD*%
G04 APERTURE END LIST*
D10*
%TO.P,,1*%
%TO.N,LOAD*%
X16000000Y-18460000D03*
D11*
%TO.P,,2*%
%TO.N,SWITCH_CS*%
X16000000Y-21000000D03*
%TO.P,,3*%
%TO.N,N/C*%
X16000000Y-23540000D03*
%TO.P,,4*%
%TO.N,MISO*%
X16000000Y-26080000D03*
%TO.P,,5*%
%TO.N,MOSI*%
X16000000Y-28620000D03*
%TO.P,,6*%
%TO.N,RESET*%
X16000000Y-31160000D03*
%TO.P,,7*%
%TO.N,SCK*%
X16000000Y-33700000D03*
%TO.P,,8*%
%TO.N,LED_STORE*%
X16000000Y-36240000D03*
%TO.P,,9*%
%TO.N,LED_OE*%
X16000000Y-38780000D03*
%TO.P,,10*%
%TO.N,3V3*%
X16000000Y-41320000D03*
%TO.P,,11*%
%TO.N,GND*%
X16000000Y-43860000D03*
%TD*%
D12*
%TO.P,ESP32S3,1*%
%TO.N,LOAD*%
X21500000Y-21000000D03*
%TO.P,ESP32S3,2*%
%TO.N,SWITCH_CS*%
X21500000Y-23540000D03*
%TO.P,ESP32S3,3*%
%TO.N,N/C*%
X21500000Y-26080000D03*
%TO.P,ESP32S3,4*%
%TO.N,RESET*%
X21500000Y-28620000D03*
%TO.P,ESP32S3,5*%
%TO.N,LED_STORE*%
X21500000Y-31160000D03*
%TO.P,ESP32S3,6*%
%TO.N,LED_OE*%
X21500000Y-33700000D03*
%TO.P,ESP32S3,7*%
%TO.N,N/C*%
X21500000Y-36240000D03*
%TO.P,ESP32S3,8*%
X38500000Y-36240000D03*
%TO.P,ESP32S3,9*%
%TO.N,SCK*%
X38500000Y-33700000D03*
%TO.P,ESP32S3,10*%
%TO.N,MISO*%
X38500000Y-31160000D03*
%TO.P,ESP32S3,11*%
%TO.N,MOSI*%
X38500000Y-28620000D03*
%TO.P,ESP32S3,12*%
%TO.N,3V3*%
X38500000Y-26080000D03*
%TO.P,ESP32S3,13*%
%TO.N,GND*%
X38500000Y-23540000D03*
%TO.P,ESP32S3,14*%
%TO.N,N/C*%
X38500000Y-21000000D03*
D13*
%TO.P,ESP32S3,15*%
X32100000Y-29220000D03*
D14*
%TO.P,ESP32S3,16*%
X25500000Y-28220000D03*
%TO.P,ESP32S3,17*%
X25500000Y-26320000D03*
D15*
%TO.P,ESP32S3,18*%
X28730000Y-20000000D03*
%TO.P,ESP32S3,19*%
X28730000Y-22580000D03*
%TO.P,ESP32S3,20*%
X28730000Y-25120000D03*
%TO.P,ESP32S3,21*%
X31270000Y-25120000D03*
%TO.P,ESP32S3,22*%
X31270000Y-22580000D03*
%TO.P,ESP32S3,23*%
X31270000Y-20000000D03*
%TD*%
D16*
%TO.N,MISO*%
X35019306Y-30949689D03*
%TO.N,GND*%
X36000000Y-23000000D03*
%TO.N,3V3*%
X36000000Y-26000000D03*
%TO.N,MOSI*%
X35000000Y-29000000D03*
%TO.N,SCK*%
X35000000Y-34000000D03*
%TD*%
%TO.N,LOAD*%
D17*
X16000000Y-18460000D02*
X18960000Y-18460000D01*
X18960000Y-18460000D02*
X21500000Y-21000000D01*
%TO.N,SWITCH_CS*%
X18540000Y-23540000D02*
X21100000Y-23540000D01*
X16000000Y-21000000D02*
X16150000Y-21000000D01*
X16000000Y-21000000D02*
X18540000Y-23540000D01*
%TO.N,MISO*%
X35019306Y-30949689D02*
X35229617Y-31160000D01*
X35229617Y-31160000D02*
X38500000Y-31160000D01*
%TO.N,RESET*%
X16000000Y-31160000D02*
X18540000Y-28620000D01*
X18540000Y-28620000D02*
X21500000Y-28620000D01*
%TO.N,LED_STORE*%
X18000000Y-31000000D02*
X21340000Y-31000000D01*
X17760000Y-36240000D02*
X18000000Y-36000000D01*
X21340000Y-31000000D02*
X21500000Y-31160000D01*
X18000000Y-36000000D02*
X18000000Y-31000000D01*
X21040000Y-31160000D02*
X21500000Y-31620000D01*
X16000000Y-36240000D02*
X17760000Y-36240000D01*
%TO.N,LED_OE*%
X19300000Y-33700000D02*
X21500000Y-33700000D01*
X19000000Y-38000000D02*
X19000000Y-34000000D01*
X19000000Y-34000000D02*
X19300000Y-33700000D01*
X16000000Y-38780000D02*
X18220000Y-38780000D01*
X18220000Y-38780000D02*
X19000000Y-38000000D01*
%TO.N,GND*%
X38040000Y-24000000D02*
X38500000Y-23540000D01*
D18*
X36000000Y-23000000D02*
X38040000Y-23000000D01*
%TO.N,3V3*%
X36080000Y-26080000D02*
X38500000Y-26080000D01*
D17*
X38500000Y-26500000D02*
X38500000Y-26540000D01*
X38000000Y-26000000D02*
X38500000Y-26500000D01*
X37000000Y-26000000D02*
X38000000Y-26000000D01*
X36000000Y-26000000D02*
X36080000Y-26080000D01*
%TO.N,MOSI*%
X38420000Y-29000000D02*
X38500000Y-29080000D01*
X35380000Y-28620000D02*
X38500000Y-28620000D01*
X35000000Y-29000000D02*
X35380000Y-28620000D01*
X38000000Y-29000000D02*
X38420000Y-29000000D01*
%TO.N,SCK*%
X35300000Y-33700000D02*
X38500000Y-33700000D01*
X38500000Y-34160000D02*
X37160000Y-34160000D01*
X38500000Y-34160000D02*
X37500000Y-33160000D01*
X35000000Y-34000000D02*
X35300000Y-33700000D01*
X37000000Y-34000000D02*
X37160000Y-34160000D01*
%TD*%
M02*
